{
  "accessors": [
    {
      "bufferView": 2,
      "componentType": 5126,
      "count": 2396,
      "max": [
        18.780166625976563,
        53.93640899658203,
        6.366368770599365
      ],
      "min": [
        -53.93640899658203,
        -53.93640899658203,
        -46.09950637817383
      ],
      "type": "VEC3"
    },
    {
      "bufferView": 2,
      "byteOffset": 28752,
      "componentType": 5126,
      "count": 2396,
      "max": [
        1.0,
        0.9999990463256836,
        1.0
      ],
      "min": [
        -1.0,
        -0.9999990463256836,
        -1.0
      ],
      "type": "VEC3"
    },
    {
      "bufferView": 1,
      "componentType": 5126,
      "count": 2396,
      "max": [
        0.9915413856506348,
        0.9944983124732971
      ],
      "min": [
        0.0005000000237487257,
        0.0005000000237487257
      ],
      "type": "VEC2"
    },
    {
      "bufferView": 0,
      "componentType": 5125,
      "count": 7356,
      "type": "SCALAR"
    }
  ],
  "asset": {
    "extras": {
      "author": "Nathan Powell (https://sketchfab.com/npowell)",
      "license": "CC-BY-4.0 (http://creativecommons.org/licenses/by/4.0/)",
      "source": "https://sketchfab.com/3d-models/casino-poker-table-f36fc75d825148618aa6e5cbfb43f28e",
      "title": "Casino Poker Table"
    },
    "generator": "Sketchfab-12.66.0",
    "version": "2.0"
  },
  "bufferViews": [
    {
      "buffer": 0,
      "byteLength": 29424,
      "name": "floatBufferViews",
      "target": 34963
    },
    {
      "buffer": 0,
      "byteLength": 19168,
      "byteOffset": 29424,
      "byteStride": 8,
      "name": "floatBufferViews",
      "target": 34962
    },
    {
      "buffer": 0,
      "byteLength": 57504,
      "byteOffset": 48592,
      "byteStride": 12,
      "name": "floatBufferViews",
      "target": 34962
    }
  ],
  "buffers": [
    {
      "byteLength": 106096,
      "uri": "scene.bin"
    }
  ],
  "images": [
    {
      "uri": "textures/PokerTable_baseColor.png"
    }
  ],
  "materials": [
    {
      "doubleSided": true,
      "name": "PokerTable",
      "pbrMetallicRoughness": {
        "baseColorTexture": {
          "index": 0
        },
        "metallicFactor": 0.0,
        "roughnessFactor": 0.8929713596497552
      }
    }
  ],
  "meshes": [
    {
      "name": "Cylinder001_PokerTable_0",
      "primitives": [
        {
          "attributes": {
            "NORMAL": 1,
            "POSITION": 0,
            "TEXCOORD_0": 2
          },
          "indices": 3,
          "material": 0,
          "mode": 4
        }
      ]
    }
  ],
  "nodes": [
    {
      "children": [
        1
      ],
      "matrix": [
        1.0,
        0.0,
        0.0,
        0.0,
        0.0,
        2.220446049250313e-16,
        -1.0,
        0.0,
        0.0,
        1.0,
        2.220446049250313e-16,
        0.0,
        0.0,
        0.0,
        0.0,
        1.0
      ],
      "name": "Sketchfab_model"
    },
    {
      "children": [
        2
      ],
      "matrix": [
        1.0,
        0.0,
        0.0,
        0.0,
        0.0,
        0.0,
        1.0,
        0.0,
        0.0,
        -1.0,
        0.0,
        0.0,
        0.0,
        0.0,
        0.0,
        1.0
      ],
      "name": "5753dae7b0f24bbaaaf6730437d29495.fbx"
    },
    {
      "children": [
        3
      ],
      "name": "RootNode"
    },
    {
      "children": [
        4
      ],
      "matrix": [
        4.5403020067897505e-08,
        5.765943192628665e-17,
        -1.0386999845504752,
        0.0,
        -1.0386999845504752,
        1.153188638525733e-16,
        -4.540302012555694e-08,
        0.0,
        1.7297829577885994e-16,
        1.038699984550476,
        0.0,
        0.0,
        0.0,
        47.88357162475586,
        0.0,
        1.0
      ],
      "name": "Cylinder001"
    },
    {
      "mesh": 0,
      "name": "Cylinder001_PokerTable_0"
    }
  ],
  "samplers": [
    {
      "magFilter": 9729,
      "minFilter": 9987,
      "wrapS": 10497,
      "wrapT": 10497
    }
  ],
  "scene": 0,
  "scenes": [
    {
      "name": "Sketchfab_Scene",
      "nodes": [
        0
      ]
    }
  ],
  "textures": [
    {
      "sampler": 0,
      "source": 0
    }
  ]
}
