{
  "accessors": [
    {
      "bufferView": 2,
      "componentType": 5126,
      "count": 736,
      "max": [
        2.8723959922790527,
        0.4692944288253784,
        1.941095232963562
      ],
      "min": [
        -2.8726062774658203,
        -0.4692944884300232,
        -3.171131134033203
      ],
      "type": "VEC3"
    },
    {
      "bufferView": 2,
      "byteOffset": 8832,
      "componentType": 5126,
      "count": 736,
      "max": [
        0.9892394542694092,
        0.9992483258247375,
        0.9933595061302185
      ],
      "min": [
        -0.9892392754554749,
        -0.9992483258247375,
        -0.7305338382720947
      ],
      "type": "VEC3"
    },
    {
      "bufferView": 3,
      "componentType": 5126,
      "count": 736,
      "max": [
        0.6676509380340576,
        0.9960966110229492,
        0.6895133256912231,
        1.0
      ],
      "min": [
        -0.7684971690177917,
        -0.9960964918136597,
        -0.6937881708145142,
        1.0
      ],
      "type": "VEC4"
    },
    {
      "bufferView": 1,
      "componentType": 5126,
      "count": 736,
      "max": [
        0.9866290092468262,
        0.99809730052948
      ],
      "min": [
        0.0019027888774871826,
        0.0019028186798095703
      ],
      "type": "VEC2"
    },
    {
      "bufferView": 1,
      "byteOffset": 5888,
      "componentType": 5126,
      "count": 736,
      "max": [
        0.9866290092468262,
        0.99809730052948
      ],
      "min": [
        0.0019027888774871826,
        0.0019028186798095703
      ],
      "type": "VEC2"
    },
    {
      "bufferView": 1,
      "byteOffset": 11776,
      "componentType": 5126,
      "count": 736,
      "max": [
        0.9866290092468262,
        0.99809730052948
      ],
      "min": [
        0.0019027888774871826,
        0.0019028186798095703
      ],
      "type": "VEC2"
    },
    {
      "bufferView": 0,
      "componentType": 5125,
      "count": 3468,
      "type": "SCALAR"
    },
    {
      "bufferView": 2,
      "byteOffset": 17664,
      "componentType": 5126,
      "count": 968,
      "max": [
        2.319161891937256,
        0.4692945182323456,
        2.7819266319274902
      ],
      "min": [
        -2.3191616535186768,
        -0.4692947566509247,
        -2.338407039642334
      ],
      "type": "VEC3"
    },
    {
      "bufferView": 2,
      "byteOffset": 29280,
      "componentType": 5126,
      "count": 968,
      "max": [
        0.994723916053772,
        0.9989004135131836,
        0.8128924369812012
      ],
      "min": [
        -0.9947236180305481,
        -0.9989003539085388,
        -0.9969459772109985
      ],
      "type": "VEC3"
    },
    {
      "bufferView": 3,
      "byteOffset": 11776,
      "componentType": 5126,
      "count": 968,
      "max": [
        0.7723004817962646,
        0.9969872832298279,
        0.797874927520752,
        1.0
      ],
      "min": [
        -0.7723003625869751,
        -0.9951761960983276,
        -0.7978777289390564,
        1.0
      ],
      "type": "VEC4"
    },
    {
      "bufferView": 1,
      "byteOffset": 17664,
      "componentType": 5126,
      "count": 968,
      "max": [
        0.9530026912689209,
        0.9978504180908203
      ],
      "min": [
        0.0021497011184692383,
        0.002149820327758789
      ],
      "type": "VEC2"
    },
    {
      "bufferView": 1,
      "byteOffset": 25408,
      "componentType": 5126,
      "count": 968,
      "max": [
        0.9530026912689209,
        0.9978504180908203
      ],
      "min": [
        0.0021497011184692383,
        0.002149820327758789
      ],
      "type": "VEC2"
    },
    {
      "bufferView": 1,
      "byteOffset": 33152,
      "componentType": 5126,
      "count": 968,
      "max": [
        0.9530026912689209,
        0.9978504180908203
      ],
      "min": [
        0.0021497011184692383,
        0.002149820327758789
      ],
      "type": "VEC2"
    },
    {
      "bufferView": 0,
      "byteOffset": 13872,
      "componentType": 5125,
      "count": 4548,
      "type": "SCALAR"
    },
    {
      "bufferView": 2,
      "byteOffset": 40896,
      "componentType": 5126,
      "count": 1162,
      "max": [
        2.2441320419311523,
        0.46929454803466797,
        2.6102466583251953
      ],
      "min": [
        -2.2441320419311523,
        -0.46929460763931274,
        -2.4903411865234375
      ],
      "type": "VEC3"
    },
    {
      "bufferView": 2,
      "byteOffset": 54840,
      "componentType": 5126,
      "count": 1162,
      "max": [
        0.9951980710029602,
        0.999204158782959,
        0.9951981902122498
      ],
      "min": [
        -0.995198130607605,
        -0.999204158782959,
        -0.9970462918281555
      ],
      "type": "VEC3"
    },
    {
      "bufferView": 3,
      "byteOffset": 27264,
      "componentType": 5126,
      "count": 1162,
      "max": [
        0.8518720865249634,
        0.995198130607605,
        0.7980333566665649,
        1.0
      ],
      "min": [
        -0.8423841595649719,
        -0.9970462918281555,
        -0.7934205532073975,
        1.0
      ],
      "type": "VEC4"
    },
    {
      "bufferView": 1,
      "byteOffset": 40896,
      "componentType": 5126,
      "count": 1162,
      "max": [
        0.9971662759780884,
        0.909327507019043
      ],
      "min": [
        0.0028336048126220703,
        0.0028336048126220703
      ],
      "type": "VEC2"
    },
    {
      "bufferView": 1,
      "byteOffset": 50192,
      "componentType": 5126,
      "count": 1162,
      "max": [
        0.9971662759780884,
        0.909327507019043
      ],
      "min": [
        0.0028336048126220703,
        0.0028336048126220703
      ],
      "type": "VEC2"
    },
    {
      "bufferView": 1,
      "byteOffset": 59488,
      "componentType": 5126,
      "count": 1162,
      "max": [
        0.9971662759780884,
        0.909327507019043
      ],
      "min": [
        0.0028336048126220703,
        0.0028336048126220703
      ],
      "type": "VEC2"
    },
    {
      "bufferView": 0,
      "byteOffset": 32064,
      "componentType": 5125,
      "count": 5268,
      "type": "SCALAR"
    },
    {
      "bufferView": 2,
      "byteOffset": 68784,
      "componentType": 5126,
      "count": 224,
      "max": [
        1.9701576232910156,
        0.46929460763931274,
        2.5601696968078613
      ],
      "min": [
        -1.9701576232910156,
        -0.46929457783699036,
        -2.5601696968078613
      ],
      "type": "VEC3"
    },
    {
      "bufferView": 2,
      "byteOffset": 71472,
      "componentType": 5126,
      "count": 224,
      "max": [
        0.8460637927055359,
        0.9963170886039734,
        0.6857106685638428
      ],
      "min": [
        -0.8460636138916016,
        -0.9963170886039734,
        -0.6857106685638428
      ],
      "type": "VEC3"
    },
    {
      "bufferView": 3,
      "byteOffset": 45856,
      "componentType": 5126,
      "count": 224,
      "max": [
        0.7923702001571655,
        0.9961416125297546,
        0.6505888104438782,
        1.0
      ],
      "min": [
        -0.7923690676689148,
        -0.9961416125297546,
        -0.44139614701271057,
        1.0
      ],
      "type": "VEC4"
    },
    {
      "bufferView": 1,
      "byteOffset": 68784,
      "componentType": 5126,
      "count": 224,
      "max": [
        0.9755769371986389,
        0.9981062412261963
      ],
      "min": [
        0.001893758773803711,
        0.001893758773803711
      ],
      "type": "VEC2"
    },
    {
      "bufferView": 1,
      "byteOffset": 70576,
      "componentType": 5126,
      "count": 224,
      "max": [
        0.9755769371986389,
        0.9981062412261963
      ],
      "min": [
        0.001893758773803711,
        0.001893758773803711
      ],
      "type": "VEC2"
    },
    {
      "bufferView": 1,
      "byteOffset": 72368,
      "componentType": 5126,
      "count": 224,
      "max": [
        0.9755769371986389,
        0.9981062412261963
      ],
      "min": [
        0.001893758773803711,
        0.001893758773803711
      ],
      "type": "VEC2"
    },
    {
      "bufferView": 0,
      "byteOffset": 53136,
      "componentType": 5125,
      "count": 948,
      "type": "SCALAR"
    }
  ],
  "asset": {
    "extras": {
      "author": "AnshiNoWara (https://sketchfab.com/AnshiNoWara)",
      "license": "CC-BY-4.0 (http://creativecommons.org/licenses/by/4.0/)",
      "source": "https://sketchfab.com/3d-models/playing-cards-symbols-4141857a23b14efb9735a4c2c7fc00f3",
      "title": "Playing-Cards Symbols"
    },
    "generator": "Sketchfab-12.66.0",
    "version": "2.0"
  },
  "bufferViews": [
    {
      "buffer": 0,
      "byteLength": 56928,
      "name": "floatBufferViews",
      "target": 34963
    },
    {
      "buffer": 0,
      "byteLength": 74160,
      "byteOffset": 56928,
      "byteStride": 8,
      "name": "floatBufferViews",
      "target": 34962
    },
    {
      "buffer": 0,
      "byteLength": 74160,
      "byteOffset": 131088,
      "byteStride": 12,
      "name": "floatBufferViews",
      "target": 34962
    },
    {
      "buffer": 0,
      "byteLength": 49440,
      "byteOffset": 205248,
      "byteStride": 16,
      "name": "floatBufferViews",
      "target": 34962
    }
  ],
  "buffers": [
    {
      "byteLength": 254688,
      "uri": "scene.bin"
    }
  ],
  "images": [
    {
      "uri": "textures/Hearts_baseColor.png"
    },
    {
      "uri": "textures/Hearts_metallicRoughness.png"
    },
    {
      "uri": "textures/Hearts_normal.png"
    },
    {
      "uri": "textures/Spades_baseColor.png"
    },
    {
      "uri": "textures/Spades_metallicRoughness.png"
    },
    {
      "uri": "textures/Spades_normal.png"
    },
    {
      "uri": "textures/Clubs_baseColor.png"
    },
    {
      "uri": "textures/Clubs_metallicRoughness.png"
    },
    {
      "uri": "textures/Clubs_normal.png"
    },
    {
      "uri": "textures/Diamonds_baseColor.png"
    },
    {
      "uri": "textures/Diamonds_metallicRoughness.png"
    },
    {
      "uri": "textures/Diamonds_normal.png"
    }
  ],
  "materials": [
    {
      "doubleSided": true,
      "name": "Hearts",
      "normalTexture": {
        "index": 2
      },
      "pbrMetallicRoughness": {
        "baseColorTexture": {
          "index": 0
        },
        "metallicRoughnessTexture": {
          "index": 1
        }
      }
    },
    {
      "doubleSided": true,
      "name": "Spades",
      "normalTexture": {
        "index": 5
      },
      "pbrMetallicRoughness": {
        "baseColorTexture": {
          "index": 3
        },
        "metallicRoughnessTexture": {
          "index": 4
        }
      }
    },
    {
      "doubleSided": true,
      "name": "Clubs",
      "normalTexture": {
        "index": 8
      },
      "pbrMetallicRoughness": {
        "baseColorTexture": {
          "index": 6
        },
        "metallicRoughnessTexture": {
          "index": 7
        }
      }
    },
    {
      "doubleSided": true,
      "name": "Diamonds",
      "normalTexture": {
        "index": 11
      },
      "pbrMetallicRoughness": {
        "baseColorTexture": {
          "index": 9
        },
        "metallicRoughnessTexture": {
          "index": 10
        }
      }
    }
  ],
  "meshes": [
    {
      "name": "Hearts_Hearts_0",
      "primitives": [
        {
          "attributes": {
            "NORMAL": 1,
            "POSITION": 0,
            "TANGENT": 2,
            "TEXCOORD_0": 3,
            "TEXCOORD_1": 4,
            "TEXCOORD_2": 5
          },
          "indices": 6,
          "material": 0,
          "mode": 4
        }
      ]
    },
    {
      "name": "Spades_Spades_0",
      "primitives": [
        {
          "attributes": {
            "NORMAL": 8,
            "POSITION": 7,
            "TANGENT": 9,
            "TEXCOORD_0": 10,
            "TEXCOORD_1": 11,
            "TEXCOORD_2": 12
          },
          "indices": 13,
          "material": 1,
          "mode": 4
        }
      ]
    },
    {
      "name": "Clubs_Clubs_0",
      "primitives": [
        {
          "attributes": {
            "NORMAL": 15,
            "POSITION": 14,
            "TANGENT": 16,
            "TEXCOORD_0": 17,
            "TEXCOORD_1": 18,
            "TEXCOORD_2": 19
          },
          "indices": 20,
          "material": 2,
          "mode": 4
        }
      ]
    },
    {
      "name": "Diamonds_Diamonds_0",
      "primitives": [
        {
          "attributes": {
            "NORMAL": 22,
            "POSITION": 21,
            "TANGENT": 23,
            "TEXCOORD_0": 24,
            "TEXCOORD_1": 25,
            "TEXCOORD_2": 26
          },
          "indices": 27,
          "material": 3,
          "mode": 4
        }
      ]
    }
  ],
  "nodes": [
    {
      "children": [
        1
      ],
      "matrix": [
        1.0,
        0.0,
        0.0,
        0.0,
        0.0,
        2.220446049250313e-16,
        -1.0,
        0.0,
        0.0,
        1.0,
        2.220446049250313e-16,
        0.0,
        0.0,
        0.0,
        0.0,
        1.0
      ],
      "name": "Sketchfab_model"
    },
    {
      "children": [
        2
      ],
      "matrix": [
        0.009999999776482582,
        0.0,
        0.0,
        0.0,
        0.0,
        0.0,
        0.009999999776482582,
        0.0,
        0.0,
        -0.009999999776482582,
        0.0,
        0.0,
        0.0,
        0.0,
        0.0,
        1.0
      ],
      "name": "card symbols.fbx"
    },
    {
      "children": [
        3,
        5,
        7,
        9
      ],
      "name": "RootNode"
    },
    {
      "children": [
        4
      ],
      "matrix": [
        100.0,
        0.0,
        0.0,
        0.0,
        -0.0,
        -1.629206793918314e-05,
        -99.99999999999868,
        0.0,
        0.0,
        99.99999999999868,
        -1.629206793918314e-05,
        0.0,
        -790.308837890625,
        93.1878890991211,
        46.929439544677734,
        1.0
      ],
      "name": "Hearts"
    },
    {
      "mesh": 0,
      "name": "Hearts_Hearts_0"
    },
    {
      "children": [
        6
      ],
      "matrix": [
        100.0,
        0.0,
        0.0,
        0.0,
        -0.0,
        -1.629206793918314e-05,
        -99.99999999999868,
        0.0,
        0.0,
        99.99999999999868,
        -1.629206793918314e-05,
        0.0,
        -157.61192321777344,
        9.042021751403809,
        46.92943572998047,
        1.0
      ],
      "name": "Spades"
    },
    {
      "mesh": 1,
      "name": "Spades_Spades_0"
    },
    {
      "children": [
        8
      ],
      "matrix": [
        100.0,
        0.0,
        0.0,
        0.0,
        0.0,
        -1.629206793918314e-05,
        -99.99999999999868,
        0.0,
        0.0,
        99.99999999999868,
        -1.629206793918314e-05,
        0.0,
        408.74139404296875,
        28.13214683532715,
        46.92942428588867,
        1.0
      ],
      "name": "Clubs"
    },
    {
      "mesh": 2,
      "name": "Clubs_Clubs_0"
    },
    {
      "children": [
        10
      ],
      "matrix": [
        100.0,
        0.0,
        0.0,
        0.0,
        0.0,
        -1.629206793918314e-05,
        -99.99999999999868,
        0.0,
        0.0,
        99.99999999999868,
        -1.629206793918314e-05,
        0.0,
        943.7047729492188,
        32.26280212402344,
        46.929439544677734,
        1.0
      ],
      "name": "Diamonds"
    },
    {
      "mesh": 3,
      "name": "Diamonds_Diamonds_0"
    }
  ],
  "samplers": [
    {
      "magFilter": 9729,
      "minFilter": 9987,
      "wrapS": 10497,
      "wrapT": 10497
    }
  ],
  "scene": 0,
  "scenes": [
    {
      "name": "Sketchfab_Scene",
      "nodes": [
        0
      ]
    }
  ],
  "textures": [
    {
      "sampler": 0,
      "source": 0
    },
    {
      "sampler": 0,
      "source": 1
    },
    {
      "sampler": 0,
      "source": 2
    },
    {
      "sampler": 0,
      "source": 3
    },
    {
      "sampler": 0,
      "source": 4
    },
    {
      "sampler": 0,
      "source": 5
    },
    {
      "sampler": 0,
      "source": 6
    },
    {
      "sampler": 0,
      "source": 7
    },
    {
      "sampler": 0,
      "source": 8
    },
    {
      "sampler": 0,
      "source": 9
    },
    {
      "sampler": 0,
      "source": 10
    },
    {
      "sampler": 0,
      "source": 11
    }
  ]
}
