{
  "accessors": [
    {
      "bufferView": 2,
      "componentType": 5126,
      "count": 64353,
      "max": [
        0.9890020489692688,
        0.43475502729415894,
        0.5824209451675415
      ],
      "min": [
        -0.9888150095939636,
        -0.4374629855155945,
        -0.6093339920043945
      ],
      "type": "VEC3"
    },
    {
      "bufferView": 2,
      "byteOffset": 772236,
      "componentType": 5126,
      "count": 64353,
      "max": [
        0.9999727010726929,
        0.9999866485595703,
        0.9999908804893494
      ],
      "min": [
        -0.9999643564224243,
        -0.9999907612800598,
        -0.9998962879180908
      ],
      "type": "VEC3"
    },
    {
      "bufferView": 3,
      "componentType": 5126,
      "count": 64353,
      "max": [
        0.9999942779541016,
        0.999960720539093,
        0.9999796748161316,
        1.0
      ],
      "min": [
        -0.9998830556869507,
        -0.999974250793457,
        -0.9998927712440491,
        1.0
      ],
      "type": "VEC4"
    },
    {
      "bufferView": 1,
      "componentType": 5126,
      "count": 64353,
      "max": [
        0.9990234375,
        1.0
      ],
      "min": [
        5.728006362915039e-05,
        9.101629257202148e-05
      ],
      "type": "VEC2"
    },
    {
      "bufferView": 1,
      "byteOffset": 514824,
      "componentType": 5126,
      "count": 64353,
      "max": [
        0.9990234375,
        1.0
      ],
      "min": [
        5.728006362915039e-05,
        9.101629257202148e-05
      ],
      "type": "VEC2"
    },
    {
      "bufferView": 1,
      "byteOffset": 1029648,
      "componentType": 5126,
      "count": 64353,
      "max": [
        0.9990234375,
        1.0
      ],
      "min": [
        5.728006362915039e-05,
        9.101629257202148e-05
      ],
      "type": "VEC2"
    },
    {
      "bufferView": 1,
      "byteOffset": 1544472,
      "componentType": 5126,
      "count": 64353,
      "max": [
        0.9990234375,
        1.0
      ],
      "min": [
        5.728006362915039e-05,
        9.101629257202148e-05
      ],
      "type": "VEC2"
    },
    {
      "bufferView": 0,
      "componentType": 5125,
      "count": 315600,
      "type": "SCALAR"
    }
  ],
  "asset": {
    "extras": {
      "author": "lalrix (https://sketchfab.com/yakuzaclanscrims)",
      "license": "CC-BY-4.0 (http://creativecommons.org/licenses/by/4.0/)",
      "source": "https://sketchfab.com/3d-models/chinese-dragon-golden-146fe11035a246959abc99c26beee4d2",
      "title": "chinese dragon golden"
    },
    "generator": "Sketchfab-16.64.0",
    "version": "2.0"
  },
  "bufferViews": [
    {
      "buffer": 0,
      "byteLength": 1262400,
      "name": "floatBufferViews",
      "target": 34963
    },
    {
      "buffer": 0,
      "byteLength": 2059296,
      "byteOffset": 1262400,
      "byteStride": 8,
      "name": "floatBufferViews",
      "target": 34962
    },
    {
      "buffer": 0,
      "byteLength": 1544472,
      "byteOffset": 3321696,
      "byteStride": 12,
      "name": "floatBufferViews",
      "target": 34962
    },
    {
      "buffer": 0,
      "byteLength": 1029648,
      "byteOffset": 4866168,
      "byteStride": 16,
      "name": "floatBufferViews",
      "target": 34962
    }
  ],
  "buffers": [
    {
      "byteLength": 5895816,
      "uri": "scene.bin"
    }
  ],
  "images": [
    {
      "uri": "textures/Material_1_baseColor.png"
    },
    {
      "uri": "textures/Material_1_metallicRoughness.png"
    },
    {
      "uri": "textures/Material_1_normal.png"
    }
  ],
  "materials": [
    {
      "name": "Material_1",
      "normalTexture": {
        "index": 2,
        "texCoord": 2
      },
      "pbrMetallicRoughness": {
        "baseColorTexture": {
          "index": 0
        },
        "metallicFactor": 0.0,
        "metallicRoughnessTexture": {
          "index": 1,
          "texCoord": 1
        }
      }
    }
  ],
  "meshes": [
    {
      "name": "Object_0",
      "primitives": [
        {
          "attributes": {
            "NORMAL": 1,
            "POSITION": 0,
            "TANGENT": 2,
            "TEXCOORD_0": 3,
            "TEXCOORD_1": 4,
            "TEXCOORD_2": 5,
            "TEXCOORD_3": 6
          },
          "indices": 7,
          "material": 0,
          "mode": 4
        }
      ]
    }
  ],
  "nodes": [
    {
      "children": [
        1
      ],
      "matrix": [
        1.0,
        0.0,
        0.0,
        0.0,
        0.0,
        2.220446049250313e-16,
        -1.0,
        0.0,
        0.0,
        1.0,
        2.220446049250313e-16,
        0.0,
        0.0,
        0.0,
        0.0,
        1.0
      ],
      "name": "Sketchfab_model"
    },
    {
      "children": [
        2
      ],
      "name": "root"
    },
    {
      "children": [
        3
      ],
      "matrix": [
        1.0,
        0.0,
        0.0,
        0.0,
        0.0,
        2.220446049250313e-16,
        1.0,
        0.0,
        0.0,
        -1.0,
        2.220446049250313e-16,
        0.0,
        0.0,
        0.0,
        0.0,
        1.0
      ],
      "name": "GLTF_SceneRootNode"
    },
    {
      "children": [
        4
      ],
      "name": "file1_0"
    },
    {
      "mesh": 0,
      "name": "Object_4"
    }
  ],
  "samplers": [
    {
      "magFilter": 9729,
      "minFilter": 9987,
      "wrapS": 10497,
      "wrapT": 10497
    }
  ],
  "scene": 0,
  "scenes": [
    {
      "name": "Sketchfab_Scene",
      "nodes": [
        0
      ]
    }
  ],
  "textures": [
    {
      "sampler": 0,
      "source": 0
    },
    {
      "sampler": 0,
      "source": 1
    },
    {
      "sampler": 0,
      "source": 2
    }
  ]
}
