{
  "accessors": [
    {
      "bufferView": 2,
      "componentType": 5126,
      "count": 20824,
      "max": [
        0.49965140223503113,
        0.5000001192092896,
        0.5000001192092896
      ],
      "min": [
        -0.5000001788139343,
        -0.5000001788139343,
        -0.5000001192092896
      ],
      "type": "VEC3"
    },
    {
      "bufferView": 2,
      "byteOffset": 249888,
      "componentType": 5126,
      "count": 20824,
      "max": [
        0.9999997019767761,
        1.0,
        1.0
      ],
      "min": [
        -1.0,
        -1.0,
        -1.0
      ],
      "type": "VEC3"
    },
    {
      "bufferView": 3,
      "componentType": 5126,
      "count": 20824,
      "max": [
        1.0,
        0.9999808669090271,
        1.0,
        1.0
      ],
      "min": [
        -1.0,
        -0.9999808669090271,
        -0.9999808669090271,
        1.0
      ],
      "type": "VEC4"
    },
    {
      "bufferView": 1,
      "componentType": 5126,
      "count": 20824,
      "max": [
        0.8750001192092896,
        1.0000001192092896
      ],
      "min": [
        0.125,
        0.0
      ],
      "type": "VEC2"
    },
    {
      "bufferView": 0,
      "componentType": 5125,
      "count": 112512,
      "type": "SCALAR"
    },
    {
      "bufferView": 2,
      "byteOffset": 499776,
      "componentType": 5126,
      "count": 7411,
      "max": [
        0.4720277488231659,
        0.4857262372970581,
        0.4857262372970581
      ],
      "min": [
        -0.4857262372970581,
        -0.4857262372970581,
        -0.4857262372970581
      ],
      "type": "VEC3"
    },
    {
      "bufferView": 2,
      "byteOffset": 588708,
      "componentType": 5126,
      "count": 7411,
      "max": [
        1.0,
        1.0,
        1.0
      ],
      "min": [
        -1.0,
        -1.0,
        -1.0
      ],
      "type": "VEC3"
    },
    {
      "bufferView": 3,
      "byteOffset": 333184,
      "componentType": 5126,
      "count": 7411,
      "max": [
        1.0,
        0.9999805688858032,
        1.0,
        1.0
      ],
      "min": [
        -1.0,
        -0.9999805688858032,
        -0.9999805092811584,
        1.0
      ],
      "type": "VEC4"
    },
    {
      "bufferView": 1,
      "byteOffset": 166592,
      "componentType": 5126,
      "count": 7411,
      "max": [
        0.8405491709709167,
        0.9655491709709167
      ],
      "min": [
        0.1594509482383728,
        0.03445091471076012
      ],
      "type": "VEC2"
    },
    {
      "bufferView": 0,
      "byteOffset": 450048,
      "componentType": 5125,
      "count": 40320,
      "type": "SCALAR"
    }
  ],
  "asset": {
    "extras": {
      "author": "Islam.Ahmady (https://sketchfab.com/Islam.Ahmady)",
      "license": "CC-BY-4.0 (http://creativecommons.org/licenses/by/4.0/)",
      "source": "https://sketchfab.com/3d-models/red-dice-4b314f2ec193412fa257adb88dc0d0cc",
      "title": "Red Dice"
    },
    "generator": "Sketchfab-15.86.0",
    "version": "2.0"
  },
  "bufferViews": [
    {
      "buffer": 0,
      "byteLength": 611328,
      "name": "floatBufferViews",
      "target": 34963
    },
    {
      "buffer": 0,
      "byteLength": 225880,
      "byteOffset": 611328,
      "byteStride": 8,
      "name": "floatBufferViews",
      "target": 34962
    },
    {
      "buffer": 0,
      "byteLength": 677640,
      "byteOffset": 837208,
      "byteStride": 12,
      "name": "floatBufferViews",
      "target": 34962
    },
    {
      "buffer": 0,
      "byteLength": 451760,
      "byteOffset": 1514848,
      "byteStride": 16,
      "name": "floatBufferViews",
      "target": 34962
    }
  ],
  "buffers": [
    {
      "byteLength": 1966608,
      "uri": "scene.bin"
    }
  ],
  "extensionsUsed": [
    "KHR_materials_clearcoat",
    "KHR_materials_specular"
  ],
  "images": [
    {
      "uri": "textures/M_MetalicRed_baseColor.png"
    },
    {
      "uri": "textures/M_MetalicRed_metallicRoughness.png"
    },
    {
      "uri": "textures/M_MetalicRed_normal.png"
    },
    {
      "uri": "textures/M_White_metallicRoughness.png"
    },
    {
      "uri": "textures/M_White_normal.png"
    }
  ],
  "materials": [
    {
      "doubleSided": true,
      "extensions": {
        "KHR_materials_clearcoat": {
          "clearcoatFactor": 1.0,
          "clearcoatRoughnessFactor": 0.04
        },
        "KHR_materials_specular": {
          "specularColorFactor": [
            1.0,
            1.0,
            1.0
          ],
          "specularFactor": 0.260835749064709
        }
      },
      "name": "M_MetalicRed",
      "normalTexture": {
        "index": 2
      },
      "occlusionTexture": {
        "index": 1
      },
      "pbrMetallicRoughness": {
        "baseColorTexture": {
          "index": 0
        },
        "metallicRoughnessTexture": {
          "index": 1
        },
        "roughnessFactor": 0.961826123450038
      }
    },
    {
      "doubleSided": true,
      "name": "M_White",
      "normalTexture": {
        "index": 4
      },
      "occlusionTexture": {
        "index": 3
      },
      "pbrMetallicRoughness": {
        "baseColorFactor": [
          0.8,
          0.8,
          0.8,
          1.0
        ],
        "metallicFactor": 0.0,
        "metallicRoughnessTexture": {
          "index": 3
        },
        "roughnessFactor": 0.8211145618000169
      }
    }
  ],
  "meshes": [
    {
      "name": "Cube_M_MetalicRed_0",
      "primitives": [
        {
          "attributes": {
            "NORMAL": 1,
            "POSITION": 0,
            "TANGENT": 2,
            "TEXCOORD_0": 3
          },
          "indices": 4,
          "material": 0,
          "mode": 4
        }
      ]
    },
    {
      "name": "Cube_M_White_0",
      "primitives": [
        {
          "attributes": {
            "NORMAL": 6,
            "POSITION": 5,
            "TANGENT": 7,
            "TEXCOORD_0": 8
          },
          "indices": 9,
          "material": 1,
          "mode": 4
        }
      ]
    }
  ],
  "nodes": [
    {
      "children": [
        1
      ],
      "matrix": [
        1.0,
        0.0,
        0.0,
        0.0,
        0.0,
        2.220446049250313e-16,
        -1.0,
        0.0,
        0.0,
        1.0,
        2.220446049250313e-16,
        0.0,
        0.0,
        0.0,
        0.0,
        1.0
      ],
      "name": "Sketchfab_model"
    },
    {
      "children": [
        2
      ],
      "matrix": [
        0.009999999776482582,
        0.0,
        0.0,
        0.0,
        0.0,
        0.0,
        0.009999999776482582,
        0.0,
        0.0,
        -0.009999999776482582,
        0.0,
        0.0,
        0.0,
        0.0,
        0.0,
        1.0
      ],
      "name": "Dice.fbx"
    },
    {
      "children": [
        3
      ],
      "name": "RootNode"
    },
    {
      "children": [
        4,
        5
      ],
      "matrix": [
        100.0,
        0.0,
        0.0,
        0.0,
        0.0,
        -1.629206793918314e-05,
        -99.99999999999868,
        0.0,
        0.0,
        99.99999999999868,
        -1.629206793918314e-05,
        0.0,
        0.0,
        59.35857391357422,
        0.0,
        1.0
      ],
      "name": "Cube"
    },
    {
      "mesh": 0,
      "name": "Cube_M_MetalicRed_0"
    },
    {
      "mesh": 1,
      "name": "Cube_M_White_0"
    }
  ],
  "samplers": [
    {
      "magFilter": 9729,
      "minFilter": 9987,
      "wrapS": 10497,
      "wrapT": 10497
    }
  ],
  "scene": 0,
  "scenes": [
    {
      "name": "Sketchfab_Scene",
      "nodes": [
        0
      ]
    }
  ],
  "textures": [
    {
      "sampler": 0,
      "source": 0
    },
    {
      "sampler": 0,
      "source": 1
    },
    {
      "sampler": 0,
      "source": 2
    },
    {
      "sampler": 0,
      "source": 3
    },
    {
      "sampler": 0,
      "source": 4
    }
  ]
}
