{
  "accessors": [
    {
      "bufferView": 2,
      "componentType": 5126,
      "count": 3096,
      "max": [
        0.42122167348861694,
        0.09149891883134842,
        0.4209651052951813
      ],
      "min": [
        -0.42122167348861694,
        0.0,
        -0.4209651052951813
      ],
      "type": "VEC3"
    },
    {
      "bufferView": 2,
      "byteOffset": 37152,
      "componentType": 5126,
      "count": 3096,
      "max": [
        1.0,
        1.0,
        0.9999905228614807
      ],
      "min": [
        -1.0,
        -1.0,
        -0.9999905228614807
      ],
      "type": "VEC3"
    },
    {
      "bufferView": 3,
      "componentType": 5126,
      "count": 3096,
      "max": [
        1.0,
        0.99984210729599,
        1.0,
        1.0
      ],
      "min": [
        -1.0,
        -0.9998423457145691,
        -1.0,
        1.0
      ],
      "type": "VEC4"
    },
    {
      "bufferView": 1,
      "componentType": 5126,
      "count": 3096,
      "max": [
        0.9998244643211365,
        0.9930846691131592
      ],
      "min": [
        0.0,
        0.0
      ],
      "type": "VEC2"
    },
    {
      "bufferView": 1,
      "byteOffset": 24768,
      "componentType": 5126,
      "count": 3096,
      "max": [
        0.9998244643211365,
        0.9930846691131592
      ],
      "min": [
        0.0,
        0.0
      ],
      "type": "VEC2"
    },
    {
      "bufferView": 1,
      "byteOffset": 49536,
      "componentType": 5126,
      "count": 3096,
      "max": [
        0.9998244643211365,
        0.9930846691131592
      ],
      "min": [
        0.0,
        0.0
      ],
      "type": "VEC2"
    },
    {
      "bufferView": 0,
      "componentType": 5125,
      "count": 8928,
      "type": "SCALAR"
    },
    {
      "bufferView": 2,
      "byteOffset": 74304,
      "componentType": 5126,
      "count": 6348,
      "max": [
        0.7251794934272766,
        0.2280571311712265,
        0.7251794934272766
      ],
      "min": [
        -0.7251794934272766,
        0.019390089437365532,
        -0.7251794934272766
      ],
      "type": "VEC3"
    },
    {
      "bufferView": 2,
      "byteOffset": 150480,
      "componentType": 5126,
      "count": 6348,
      "max": [
        1.0,
        0.9956415295600891,
        1.0
      ],
      "min": [
        -1.0,
        -1.0,
        -1.0
      ],
      "type": "VEC3"
    },
    {
      "bufferView": 3,
      "byteOffset": 49536,
      "componentType": 5126,
      "count": 6348,
      "max": [
        0.9999960064888,
        0.9999735355377197,
        0.9999997615814209,
        1.0
      ],
      "min": [
        -0.9992972612380981,
        -0.9999735951423645,
        -1.0,
        1.0
      ],
      "type": "VEC4"
    },
    {
      "bufferView": 1,
      "byteOffset": 74304,
      "componentType": 5126,
      "count": 6348,
      "max": [
        0.9985724687576294,
        0.9976796507835388
      ],
      "min": [
        0.0,
        0.0
      ],
      "type": "VEC2"
    },
    {
      "bufferView": 1,
      "byteOffset": 125088,
      "componentType": 5126,
      "count": 6348,
      "max": [
        0.9985724687576294,
        0.9976796507835388
      ],
      "min": [
        0.0,
        0.0
      ],
      "type": "VEC2"
    },
    {
      "bufferView": 1,
      "byteOffset": 175872,
      "componentType": 5126,
      "count": 6348,
      "max": [
        0.9985724687576294,
        0.9976796507835388
      ],
      "min": [
        0.0,
        0.0
      ],
      "type": "VEC2"
    },
    {
      "bufferView": 0,
      "byteOffset": 35712,
      "componentType": 5125,
      "count": 24720,
      "type": "SCALAR"
    },
    {
      "bufferView": 2,
      "byteOffset": 226656,
      "componentType": 5126,
      "count": 652,
      "max": [
        0.04999999701976776,
        0.30724287033081055,
        0.04999999701976776
      ],
      "min": [
        -0.04999999701976776,
        0.09138593822717667,
        -0.04999999701976776
      ],
      "type": "VEC3"
    },
    {
      "bufferView": 2,
      "byteOffset": 234480,
      "componentType": 5126,
      "count": 652,
      "max": [
        1.0,
        1.0,
        1.0
      ],
      "min": [
        -1.0,
        -0.9997785091400146,
        -1.0
      ],
      "type": "VEC3"
    },
    {
      "bufferView": 3,
      "byteOffset": 151104,
      "componentType": 5126,
      "count": 652,
      "max": [
        0.9291864633560181,
        1.0,
        1.0,
        1.0
      ],
      "min": [
        -0.9576775431632996,
        -0.999451756477356,
        -1.0,
        1.0
      ],
      "type": "VEC4"
    },
    {
      "bufferView": 1,
      "byteOffset": 226656,
      "componentType": 5126,
      "count": 652,
      "max": [
        0.9997021555900574,
        0.9982126951217651
      ],
      "min": [
        0.0,
        0.0
      ],
      "type": "VEC2"
    },
    {
      "bufferView": 1,
      "byteOffset": 231872,
      "componentType": 5126,
      "count": 652,
      "max": [
        0.9997021555900574,
        0.9982126951217651
      ],
      "min": [
        0.0,
        0.0
      ],
      "type": "VEC2"
    },
    {
      "bufferView": 1,
      "byteOffset": 237088,
      "componentType": 5126,
      "count": 652,
      "max": [
        0.9997021555900574,
        0.9982126951217651
      ],
      "min": [
        0.0,
        0.0
      ],
      "type": "VEC2"
    },
    {
      "bufferView": 0,
      "byteOffset": 134592,
      "componentType": 5125,
      "count": 2520,
      "type": "SCALAR"
    }
  ],
  "asset": {
    "extras": {
      "author": "Geug (https://sketchfab.com/Geug)",
      "license": "CC-BY-4.0 (http://creativecommons.org/licenses/by/4.0/)",
      "source": "https://sketchfab.com/3d-models/rou-lp-test-09-ed0b04e5d10d45f1b7d2b4390b5eac50",
      "title": "rou_LP_Test_09"
    },
    "generator": "Sketchfab-16.74.0",
    "version": "2.0"
  },
  "bufferViews": [
    {
      "buffer": 0,
      "byteLength": 144672,
      "name": "floatBufferViews",
      "target": 34963
    },
    {
      "buffer": 0,
      "byteLength": 242304,
      "byteOffset": 144672,
      "byteStride": 8,
      "name": "floatBufferViews",
      "target": 34962
    },
    {
      "buffer": 0,
      "byteLength": 242304,
      "byteOffset": 386976,
      "byteStride": 12,
      "name": "floatBufferViews",
      "target": 34962
    },
    {
      "buffer": 0,
      "byteLength": 161536,
      "byteOffset": 629280,
      "byteStride": 16,
      "name": "floatBufferViews",
      "target": 34962
    }
  ],
  "buffers": [
    {
      "byteLength": 790816,
      "uri": "scene.bin"
    }
  ],
  "images": [
    {
      "uri": "textures/inside_baseColor.jpeg"
    },
    {
      "uri": "textures/inside_metallicRoughness.png"
    },
    {
      "uri": "textures/inside_normal.jpeg"
    },
    {
      "uri": "textures/outside_baseColor.jpeg"
    },
    {
      "uri": "textures/outside_metallicRoughness.png"
    },
    {
      "uri": "textures/outside_normal.jpeg"
    },
    {
      "uri": "textures/turret_baseColor.jpeg"
    },
    {
      "uri": "textures/turret_metallicRoughness.png"
    },
    {
      "uri": "textures/turret_normal.jpeg"
    }
  ],
  "materials": [
    {
      "doubleSided": true,
      "name": "inside",
      "normalTexture": {
        "index": 2
      },
      "pbrMetallicRoughness": {
        "baseColorTexture": {
          "index": 0
        },
        "metallicRoughnessTexture": {
          "index": 1
        }
      }
    },
    {
      "doubleSided": true,
      "name": "outside",
      "normalTexture": {
        "index": 5
      },
      "pbrMetallicRoughness": {
        "baseColorTexture": {
          "index": 3
        },
        "metallicRoughnessTexture": {
          "index": 4
        }
      }
    },
    {
      "doubleSided": true,
      "name": "turret",
      "normalTexture": {
        "index": 8
      },
      "pbrMetallicRoughness": {
        "baseColorTexture": {
          "index": 6
        },
        "metallicRoughnessTexture": {
          "index": 7
        }
      }
    }
  ],
  "meshes": [
    {
      "name": "geo1_inside_0",
      "primitives": [
        {
          "attributes": {
            "NORMAL": 1,
            "POSITION": 0,
            "TANGENT": 2,
            "TEXCOORD_0": 3,
            "TEXCOORD_1": 4,
            "TEXCOORD_2": 5
          },
          "indices": 6,
          "material": 0,
          "mode": 4
        }
      ]
    },
    {
      "name": "geo1_outside_0",
      "primitives": [
        {
          "attributes": {
            "NORMAL": 8,
            "POSITION": 7,
            "TANGENT": 9,
            "TEXCOORD_0": 10,
            "TEXCOORD_1": 11,
            "TEXCOORD_2": 12
          },
          "indices": 13,
          "material": 1,
          "mode": 4
        }
      ]
    },
    {
      "name": "geo1_turret_0",
      "primitives": [
        {
          "attributes": {
            "NORMAL": 15,
            "POSITION": 14,
            "TANGENT": 16,
            "TEXCOORD_0": 17,
            "TEXCOORD_1": 18,
            "TEXCOORD_2": 19
          },
          "indices": 20,
          "material": 2,
          "mode": 4
        }
      ]
    }
  ],
  "nodes": [
    {
      "children": [
        1
      ],
      "matrix": [
        1.0,
        0.0,
        0.0,
        0.0,
        0.0,
        2.220446049250313e-16,
        -1.0,
        0.0,
        0.0,
        1.0,
        2.220446049250313e-16,
        0.0,
        0.0,
        0.0,
        0.0,
        1.0
      ],
      "name": "Sketchfab_model"
    },
    {
      "children": [
        2
      ],
      "matrix": [
        0.009999999776482582,
        0.0,
        0.0,
        0.0,
        0.0,
        0.0,
        0.009999999776482582,
        0.0,
        0.0,
        -0.009999999776482582,
        0.0,
        0.0,
        0.0,
        0.0,
        0.0,
        1.0
      ],
      "name": "mesh.fbx"
    },
    {
      "children": [
        3
      ],
      "name": "RootNode"
    },
    {
      "children": [
        4,
        5,
        6
      ],
      "name": "geo1"
    },
    {
      "mesh": 0,
      "name": "geo1_inside_0"
    },
    {
      "mesh": 1,
      "name": "geo1_outside_0"
    },
    {
      "mesh": 2,
      "name": "geo1_turret_0"
    }
  ],
  "samplers": [
    {
      "magFilter": 9729,
      "minFilter": 9987,
      "wrapS": 10497,
      "wrapT": 10497
    }
  ],
  "scene": 0,
  "scenes": [
    {
      "name": "Sketchfab_Scene",
      "nodes": [
        0
      ]
    }
  ],
  "textures": [
    {
      "sampler": 0,
      "source": 0
    },
    {
      "sampler": 0,
      "source": 1
    },
    {
      "sampler": 0,
      "source": 2
    },
    {
      "sampler": 0,
      "source": 3
    },
    {
      "sampler": 0,
      "source": 4
    },
    {
      "sampler": 0,
      "source": 5
    },
    {
      "sampler": 0,
      "source": 6
    },
    {
      "sampler": 0,
      "source": 7
    },
    {
      "sampler": 0,
      "source": 8
    }
  ]
}
